<svg width="131" height="43" viewBox="0 0 131 43" fill="none" xmlns="http://www.w3.org/2000/svg">
<path d="M6.90344 24.8744V25.5971C6.90344 26.1578 7.35781 26.6121 7.9185 26.6121H16.9676C17.5283 26.6121 17.9827 26.1578 17.9827 25.5971V24.8744H22.5454V29.2985C22.5454 30.331 21.7007 31.1757 20.6682 31.1757H4.21712C3.18462 31.1757 2.33984 30.331 2.33984 29.2985V24.8744H6.90344ZM6.90261 19.0059V23.5686H2.33984V19.0059H6.90261ZM20.6682 11.3996C21.7007 11.3996 22.5454 12.2444 22.5454 13.2777V17.7009H17.9827V16.9782C17.9827 16.4176 17.5283 15.9632 16.9676 15.9632H7.91767C7.35698 15.9632 6.90261 16.4176 6.90261 16.9782V17.7009H2.33984V13.2769C2.33984 12.2444 3.18462 11.3996 4.21712 11.3996H20.6682Z" fill="#3F65EE"/>
<path d="M37.9234 31.2643C36.5664 31.2643 35.3152 31.0352 34.1697 30.577C33.0418 30.1012 32.0549 29.4403 31.209 28.5944C30.3807 27.7309 29.7374 26.7176 29.2792 25.5544C28.821 24.3737 28.5919 23.0872 28.5919 21.6949C28.5919 20.3379 28.8298 19.0867 29.3057 17.9412C29.7815 16.7781 30.4512 15.7735 31.3147 14.9276C32.1782 14.0641 33.1916 13.3944 34.3547 12.9186C35.5178 12.4427 36.7779 12.2048 38.1349 12.2048C39.016 12.2048 39.8796 12.3282 40.7255 12.5749C41.589 12.804 42.3733 13.1477 43.0782 13.6059C43.8008 14.0641 44.4176 14.6104 44.9286 15.2448L42.4438 17.9941C42.0208 17.5711 41.5802 17.2098 41.122 16.9102C40.6814 16.593 40.2056 16.3551 39.6945 16.1965C39.2011 16.0203 38.6724 15.9321 38.1085 15.9321C37.3507 15.9321 36.6369 16.0731 35.9672 16.3551C35.3152 16.6371 34.7424 17.0336 34.249 17.5447C33.7555 18.0381 33.359 18.6461 33.0594 19.3687C32.7774 20.0736 32.6364 20.8578 32.6364 21.7214C32.6364 22.6025 32.7774 23.4044 33.0594 24.1269C33.3414 24.8319 33.7379 25.4399 34.249 25.9509C34.76 26.4444 35.368 26.8321 36.073 27.1141C36.7955 27.3784 37.5886 27.5106 38.4521 27.5106C39.016 27.5106 39.5624 27.4313 40.0911 27.2727C40.6198 27.1141 41.1044 26.8938 41.545 26.6118C42.0032 26.3298 42.4085 26.0038 42.761 25.6337L44.6907 28.7266C44.2678 29.2024 43.695 29.6342 42.9725 30.0219C42.2675 30.4096 41.4745 30.718 40.5933 30.9471C39.7122 31.1586 38.8222 31.2643 37.9234 31.2643ZM53.6112 31.2643C52.0956 31.2643 50.7739 30.9559 49.646 30.3391C48.5181 29.7223 47.637 28.8764 47.0025 27.8014C46.3681 26.7264 46.0509 25.4927 46.0509 24.1005C46.0509 23.0255 46.2271 22.0386 46.5796 21.1398C46.932 20.241 47.4255 19.4656 48.0599 18.8135C48.6944 18.1439 49.4434 17.6328 50.3069 17.2803C51.1881 16.9102 52.1397 16.7252 53.1619 16.7252C54.1135 16.7252 54.9947 16.9014 55.8053 17.2539C56.616 17.5887 57.3121 18.0734 57.8937 18.7078C58.4929 19.3246 58.9511 20.056 59.2683 20.9019C59.5855 21.7478 59.7265 22.673 59.6913 23.6776L59.6648 24.8407H48.43L47.822 22.5409H56.5719L56.149 23.0167V22.4351C56.1137 21.9593 55.9551 21.5275 55.6732 21.1398C55.4088 20.7521 55.0652 20.4525 54.6422 20.241C54.2192 20.0295 53.7434 19.9238 53.2147 19.9238C52.4393 19.9238 51.7784 20.0736 51.2321 20.3732C50.7034 20.6728 50.2981 21.1134 50.0161 21.6949C49.7341 22.2765 49.5931 22.9814 49.5931 23.8097C49.5931 24.6556 49.7694 25.387 50.1218 26.0038C50.4919 26.6206 51.003 27.1053 51.6551 27.4577C52.3247 27.7926 53.109 27.96 54.0078 27.96C54.6246 27.96 55.1885 27.8631 55.6996 27.6692C56.2107 27.4754 56.757 27.1405 57.3386 26.6647L59.1361 29.176C58.6251 29.6342 58.0611 30.0219 57.4443 30.3391C56.8275 30.6387 56.193 30.8678 55.541 31.0264C54.8889 31.185 54.2457 31.2643 53.6112 31.2643ZM67.1707 31.2643C66.0075 31.2643 64.9589 30.9471 64.0249 30.3127C63.0909 29.6783 62.3507 28.8147 61.8044 27.7221C61.2581 26.6294 60.9849 25.3782 60.9849 23.9683C60.9849 22.5585 61.2581 21.316 61.8044 20.241C62.3683 19.1484 63.1261 18.2937 64.0778 17.6768C65.0294 17.0424 66.1133 16.7252 67.3293 16.7252C68.0166 16.7252 68.6422 16.8309 69.2061 17.0424C69.7877 17.2363 70.29 17.5094 70.7129 17.8619C71.1535 18.2144 71.5236 18.6197 71.8232 19.0779C72.1228 19.5361 72.3343 20.0295 72.4576 20.5582L71.6646 20.4261V17.016H75.3919V31H71.6117V27.6428L72.4576 27.5635C72.3166 28.0569 72.0875 28.5239 71.7703 28.9645C71.4531 29.4051 71.0566 29.8016 70.5808 30.1541C70.1226 30.4889 69.6027 30.7621 69.0211 30.9736C68.4395 31.1674 67.8227 31.2643 67.1707 31.2643ZM68.2016 28.0129C68.9066 28.0129 69.5234 27.8454 70.0521 27.5106C70.5808 27.1758 70.9861 26.7087 71.2681 26.1096C71.5677 25.4927 71.7175 24.779 71.7175 23.9683C71.7175 23.1753 71.5677 22.4792 71.2681 21.88C70.9861 21.2808 70.5808 20.8138 70.0521 20.4789C69.5234 20.1265 68.9066 19.9502 68.2016 19.9502C67.5143 19.9502 66.9063 20.1265 66.3776 20.4789C65.8665 20.8138 65.4612 21.2808 65.1616 21.88C64.862 22.4792 64.7122 23.1753 64.7122 23.9683C64.7122 24.779 64.862 25.4927 65.1616 26.1096C65.4612 26.7087 65.8665 27.1758 66.3776 27.5106C66.9063 27.8454 67.5143 28.0129 68.2016 28.0129ZM79.9748 31V13.4737H83.7286V31H79.9748ZM77.3578 20.3732V17.016H86.5835V20.3732H77.3578ZM88.8187 31V17.016H92.5725V31H88.8187ZM90.6692 14.1346C89.9466 14.1346 89.3827 13.9583 88.9773 13.6059C88.572 13.2534 88.3693 12.7512 88.3693 12.0991C88.3693 11.4999 88.572 11.0153 88.9773 10.6452C89.4003 10.2575 89.9642 10.0636 90.6692 10.0636C91.3917 10.0636 91.9557 10.2487 92.361 10.6187C92.7663 10.9712 92.969 11.4647 92.969 12.0991C92.969 12.7159 92.7575 13.2094 92.3346 13.5794C91.9292 13.9495 91.3741 14.1346 90.6692 14.1346ZM100.441 31L94.5726 17.016H98.6965L102.424 27.4577L101.551 27.6163L105.464 17.016H109.482L103.323 31H100.441ZM117.494 31.2643C115.978 31.2643 114.656 30.9559 113.528 30.3391C112.401 29.7223 111.519 28.8764 110.885 27.8014C110.251 26.7264 109.933 25.4927 109.933 24.1005C109.933 23.0255 110.11 22.0386 110.462 21.1398C110.815 20.241 111.308 19.4656 111.942 18.8135C112.577 18.1439 113.326 17.6328 114.189 17.2803C115.071 16.9102 116.022 16.7252 117.044 16.7252C117.996 16.7252 118.877 16.9014 119.688 17.2539C120.498 17.5887 121.195 18.0734 121.776 18.7078C122.375 19.3246 122.834 20.056 123.151 20.9019C123.468 21.7478 123.609 22.673 123.574 23.6776L123.547 24.8407H112.312L111.704 22.5409H120.454L120.031 23.0167V22.4351C119.996 21.9593 119.838 21.5275 119.556 21.1398C119.291 20.7521 118.948 20.4525 118.525 20.241C118.102 20.0295 117.626 19.9238 117.097 19.9238C116.322 19.9238 115.661 20.0736 115.115 20.3732C114.586 20.6728 114.181 21.1134 113.899 21.6949C113.617 22.2765 113.476 22.9814 113.476 23.8097C113.476 24.6556 113.652 25.387 114.004 26.0038C114.374 26.6206 114.885 27.1053 115.538 27.4577C116.207 27.7926 116.991 27.96 117.89 27.96C118.507 27.96 119.071 27.8631 119.582 27.6692C120.093 27.4754 120.639 27.1405 121.221 26.6647L123.019 29.176C122.508 29.6342 121.944 30.0219 121.327 30.3391C120.71 30.6387 120.076 30.8678 119.423 31.0264C118.771 31.185 118.128 31.2643 117.494 31.2643Z" fill="#2F2F2F"/>
<path d="M126.719 31.0687C126.097 31.0687 125.614 30.8881 125.268 30.5269C124.94 30.1657 124.776 29.6583 124.776 29.0046C124.776 28.4026 124.949 27.9124 125.294 27.534C125.657 27.1384 126.132 26.9406 126.719 26.9406C127.341 26.9406 127.815 27.1212 128.144 27.4824C128.489 27.8264 128.662 28.3338 128.662 29.0046C128.662 29.6067 128.48 30.1055 128.118 30.5011C127.772 30.8795 127.306 31.0687 126.719 31.0687Z" fill="#3F65EE"/>
</svg>
